<svg width="500" height="500" viewBox="0 0 500 500" fill="none" xmlns="http://www.w3.org/2000/svg">
<path d="M414.3 333.28V143.78L250.18 49.03L86.07 143.78V333.28L250.18 428.03L414.3 333.28Z" fill="#2ACA4B"/>
<path d="M177.929 237.38H155.499V174.107H178.114C184.479 174.107 189.957 175.374 194.55 177.907C199.143 180.42 202.676 184.035 205.147 188.751C207.64 193.468 208.886 199.112 208.886 205.682C208.886 212.273 207.64 217.937 205.147 222.674C202.676 227.411 199.123 231.047 194.489 233.58C189.875 236.113 184.355 237.38 177.929 237.38ZM168.877 225.918H177.373C181.327 225.918 184.654 225.218 187.352 223.817C190.071 222.396 192.11 220.202 193.469 217.237C194.849 214.25 195.539 210.398 195.539 205.682C195.539 201.006 194.849 197.186 193.469 194.22C192.11 191.254 190.081 189.071 187.383 187.67C184.685 186.27 181.358 185.569 177.404 185.569H168.877V225.918ZM232.08 238.276C229.052 238.276 226.354 237.751 223.986 236.7C221.617 235.629 219.743 234.054 218.363 231.973C217.003 229.873 216.324 227.257 216.324 224.126C216.324 221.49 216.808 219.276 217.776 217.484C218.744 215.692 220.062 214.25 221.73 213.158C223.399 212.067 225.293 211.243 227.415 210.687C229.557 210.131 231.802 209.739 234.15 209.513C236.91 209.224 239.134 208.957 240.823 208.71C242.512 208.442 243.738 208.05 244.5 207.536C245.262 207.021 245.643 206.259 245.643 205.249V205.064C245.643 203.107 245.025 201.593 243.789 200.522C242.574 199.451 240.844 198.916 238.599 198.916C236.23 198.916 234.346 199.441 232.945 200.492C231.544 201.521 230.618 202.819 230.165 204.384L217.992 203.396C218.61 200.512 219.825 198.02 221.638 195.919C223.45 193.798 225.788 192.17 228.651 191.038C231.534 189.884 234.871 189.308 238.661 189.308C241.297 189.308 243.82 189.617 246.23 190.234C248.66 190.852 250.813 191.81 252.687 193.108C254.582 194.405 256.075 196.074 257.167 198.113C258.258 200.131 258.804 202.551 258.804 205.373V237.38H246.323V230.799H245.952C245.19 232.282 244.17 233.59 242.893 234.723C241.616 235.835 240.082 236.711 238.29 237.349C236.498 237.967 234.428 238.276 232.08 238.276ZM235.849 229.193C237.785 229.193 239.495 228.812 240.978 228.05C242.461 227.267 243.624 226.217 244.469 224.898C245.313 223.58 245.736 222.087 245.736 220.419V215.383C245.324 215.651 244.757 215.898 244.036 216.124C243.336 216.33 242.543 216.526 241.657 216.711C240.772 216.876 239.886 217.031 239 217.175C238.115 217.298 237.312 217.412 236.591 217.515C235.046 217.741 233.697 218.102 232.543 218.596C231.39 219.09 230.494 219.76 229.856 220.604C229.217 221.428 228.898 222.458 228.898 223.694C228.898 225.485 229.547 226.855 230.844 227.803C232.162 228.729 233.831 229.193 235.849 229.193ZM294.256 189.925V199.812H265.678V189.925H294.256ZM272.166 178.556H285.327V222.798C285.327 224.013 285.513 224.96 285.883 225.64C286.254 226.299 286.769 226.762 287.428 227.03C288.108 227.298 288.891 227.432 289.776 227.432C290.394 227.432 291.012 227.38 291.63 227.277C292.248 227.154 292.722 227.061 293.051 226.999L295.121 236.793C294.462 236.999 293.535 237.236 292.34 237.504C291.146 237.792 289.694 237.967 287.984 238.029C284.812 238.152 282.032 237.73 279.643 236.762C277.274 235.794 275.431 234.291 274.112 232.251C272.794 230.212 272.146 227.638 272.166 224.528V178.556ZM316.361 238.276C313.334 238.276 310.635 237.751 308.267 236.7C305.898 235.629 304.024 234.054 302.644 231.973C301.285 229.873 300.605 227.257 300.605 224.126C300.605 221.49 301.089 219.276 302.057 217.484C303.025 215.692 304.343 214.25 306.011 213.158C307.68 212.067 309.575 211.243 311.696 210.687C313.838 210.131 316.083 209.739 318.431 209.513C321.191 209.224 323.416 208.957 325.104 208.71C326.793 208.442 328.019 208.05 328.781 207.536C329.543 207.021 329.924 206.259 329.924 205.249V205.064C329.924 203.107 329.306 201.593 328.07 200.522C326.855 199.451 325.125 198.916 322.88 198.916C320.511 198.916 318.627 199.441 317.226 200.492C315.826 201.521 314.899 202.819 314.446 204.384L302.273 203.396C302.891 200.512 304.106 198.02 305.919 195.919C307.731 193.798 310.069 192.17 312.932 191.038C315.815 189.884 319.152 189.308 322.942 189.308C325.578 189.308 328.101 189.617 330.511 190.234C332.941 190.852 335.094 191.81 336.968 193.108C338.863 194.405 340.356 196.074 341.448 198.113C342.54 200.131 343.085 202.551 343.085 205.373V237.38H330.604V230.799H330.233C329.471 232.282 328.451 233.59 327.174 234.723C325.897 235.835 324.363 236.711 322.571 237.349C320.779 237.967 318.709 238.276 316.361 238.276ZM320.13 229.193C322.066 229.193 323.776 228.812 325.259 228.05C326.742 227.267 327.906 226.217 328.75 224.898C329.595 223.58 330.017 222.087 330.017 220.419V215.383C329.605 215.651 329.038 215.898 328.318 216.124C327.617 216.33 326.824 216.526 325.939 216.711C325.053 216.876 324.167 217.031 323.282 217.175C322.396 217.298 321.593 217.412 320.872 217.515C319.327 217.741 317.978 218.102 316.825 218.596C315.671 219.09 314.775 219.76 314.137 220.604C313.498 221.428 313.179 222.458 313.179 223.694C313.179 225.485 313.828 226.855 315.125 227.803C316.444 228.729 318.112 229.193 320.13 229.193Z" fill="white"/>
<path d="M178.872 293.564C178.872 291.548 178.272 289.916 177.072 288.668C175.872 287.372 174.36 286.244 172.536 285.284C170.76 284.276 168.816 283.34 166.704 282.476C164.592 281.612 162.624 280.58 160.8 279.38C159.024 278.132 157.536 276.62 156.336 274.844C155.136 273.02 154.536 270.716 154.536 267.932C154.536 263.996 155.904 260.876 158.64 258.572C161.376 256.268 165.264 255.116 170.304 255.116C173.232 255.116 175.896 255.332 178.296 255.764C180.696 256.196 182.568 256.748 183.912 257.42L182.112 262.676C181.008 262.148 179.376 261.644 177.216 261.164C175.104 260.684 172.704 260.444 170.016 260.444C166.848 260.444 164.472 261.164 162.888 262.604C161.304 263.996 160.512 265.652 160.512 267.572C160.512 269.444 161.112 271.004 162.312 272.252C163.512 273.5 165 274.628 166.776 275.636C168.6 276.596 170.568 277.556 172.68 278.516C174.792 279.476 176.736 280.604 178.512 281.9C180.336 283.148 181.848 284.66 183.048 286.436C184.248 288.212 184.848 290.42 184.848 293.06C184.848 295.22 184.464 297.164 183.696 298.892C182.928 300.62 181.8 302.108 180.312 303.356C178.824 304.604 177.024 305.564 174.912 306.236C172.8 306.908 170.4 307.244 167.712 307.244C164.112 307.244 161.136 306.956 158.784 306.38C156.432 305.852 154.608 305.252 153.312 304.58L155.328 299.18C156.432 299.804 158.064 300.428 160.224 301.052C162.384 301.628 164.808 301.916 167.496 301.916C169.08 301.916 170.568 301.772 171.96 301.484C173.352 301.148 174.552 300.644 175.56 299.972C176.568 299.252 177.36 298.364 177.936 297.308C178.56 296.252 178.872 295.004 178.872 293.564ZM224.538 283.268H200.346V306.38H194.37V255.98H200.346V277.94H224.538V255.98H230.514V306.38H224.538V283.268ZM242.745 255.98H270.177V261.308H248.721V277.796H268.377V283.124H248.721V301.052H270.537V306.38H242.745V255.98ZM311.155 306.38H281.347V255.98H287.323V301.052H311.155V306.38ZM348.35 306.38H318.542V255.98H324.518V301.052H348.35V306.38Z" fill="white"/>
</svg>
